<svg width="155" height="155" viewBox="0 0 155 155" fill="none" xmlns="http://www.w3.org/2000/svg">
<path d="M140.58 120.79C149.4 107.99 154.04 93.0499 154.04 77.3699C154.04 61.6899 149.4 46.7499 140.58 33.9499L140.65 33.9199L138.69 31.3099C138.69 31.3099 138.67 31.2899 138.67 31.2799C127.83 16.8699 112.72 6.9899 95.6999 2.8399C90.0299 1.4599 84.1399 0.709902 78.1399 0.649902H77.8499C77.8499 0.649902 77.8299 0.649902 77.8199 0.649902C77.4999 0.649902 77.1599 0.649902 76.8499 0.649902C76.8399 0.649902 76.8199 0.649902 76.8099 0.649902H76.4999C52.4999 0.899902 30.4499 12.0599 15.9899 31.2699L14.0099 33.8999L14.0799 33.9299C5.25986 46.7299 0.609863 61.6799 0.609863 77.3599C0.609863 93.0399 5.25986 107.98 14.0799 120.79L14.0099 120.82L15.9899 123.45C30.4499 142.66 52.4999 153.82 76.5199 154.07H76.7999C76.9699 154.07 77.1499 154.07 77.3199 154.07C77.4799 154.07 77.6399 154.07 77.7899 154.07C77.8099 154.07 77.8199 154.07 77.8399 154.07H78.1499C82.6499 154.02 87.0799 153.59 91.4099 152.8C93.5699 152.4 95.7099 151.91 97.8099 151.34C98.5099 151.15 99.2099 150.94 99.8999 150.73C115.18 146.06 128.71 136.66 138.65 123.45C138.65 123.45 138.66 123.43 138.67 123.43L140.64 120.82L140.57 120.79H140.58ZM131.74 124.17C131.5 124.45 131.26 124.73 131.01 125.01C130.8 125.24 130.6 125.47 130.39 125.7C130.14 125.97 129.89 126.24 129.64 126.51C129.43 126.73 129.22 126.96 129.01 127.18C128.75 127.45 128.5 127.71 128.24 127.97C128.03 128.19 127.81 128.4 127.59 128.62C127.33 128.88 127.06 129.14 126.79 129.39C126.57 129.6 126.35 129.81 126.13 130.01C125.86 130.26 125.58 130.51 125.31 130.76C125.09 130.96 124.87 131.16 124.65 131.36C124.37 131.61 124.08 131.85 123.79 132.1C123.57 132.29 123.35 132.48 123.13 132.66C122.83 132.91 122.53 133.15 122.23 133.39C122.01 133.57 121.79 133.74 121.57 133.92C121.26 134.17 120.94 134.4 120.63 134.64C120.42 134.8 120.21 134.97 119.99 135.13C119.65 135.38 119.31 135.62 118.97 135.87C118.96 135.87 118.95 135.88 118.94 135.89C122.91 131.88 126.49 127.28 129.59 122.15C130.61 122.47 131.62 122.8 132.61 123.14C132.52 123.25 132.43 123.36 132.34 123.47C132.14 123.71 131.94 123.95 131.74 124.18V124.17ZM34.6899 135.13C34.4499 134.95 34.2099 134.76 33.9599 134.58C33.6699 134.36 33.3899 134.14 33.0999 133.92C32.8599 133.73 32.6199 133.54 32.3799 133.34C32.0999 133.11 31.8199 132.89 31.5499 132.66C31.3099 132.46 31.0799 132.26 30.8399 132.06C30.5699 131.83 30.2999 131.59 30.0299 131.36C29.7999 131.15 29.5699 130.95 29.3399 130.74C29.0699 130.5 28.8099 130.26 28.5499 130.01C28.3199 129.8 28.0999 129.58 27.8699 129.37C27.6099 129.12 27.3499 128.87 27.0899 128.62C26.8699 128.4 26.6499 128.18 26.4299 127.96C26.1699 127.7 25.9199 127.44 25.6699 127.18C25.4599 126.96 25.2399 126.73 25.0299 126.51C24.7799 126.24 24.5299 125.97 24.2799 125.7C24.0699 125.47 23.8699 125.24 23.6599 125.01C23.4099 124.73 23.1699 124.45 22.9299 124.17C22.7299 123.94 22.5299 123.71 22.3399 123.47C22.2499 123.36 22.1599 123.24 22.0599 123.13C23.0499 122.79 24.0599 122.46 25.0799 122.14C28.1799 127.27 31.7599 131.88 35.7299 135.88C35.6799 135.85 35.6399 135.81 35.5899 135.78C35.2899 135.57 34.9899 135.35 34.6899 135.13ZM22.9199 30.5799C23.1599 30.2999 23.4099 30.0099 23.6599 29.7299C23.8599 29.4999 24.0699 29.2699 24.2799 29.0399C24.5299 28.7699 24.7799 28.4999 25.0299 28.2299C25.2399 27.9999 25.4499 27.7799 25.6699 27.5599C25.9199 27.2999 26.1799 27.0399 26.4399 26.7799C26.6599 26.5599 26.8799 26.3399 27.0999 26.1199C27.3599 25.8699 27.6199 25.6199 27.8799 25.3699C28.0999 25.1599 28.3299 24.9399 28.5599 24.7299C28.8199 24.4799 29.0899 24.2399 29.3599 23.9999C29.5899 23.7899 29.8199 23.5799 30.0499 23.3799C30.3199 23.1399 30.5899 22.9099 30.8599 22.6799C31.0999 22.4799 31.3299 22.2799 31.5699 22.0799C31.8499 21.8499 32.1199 21.6299 32.3999 21.3999C32.6399 21.2099 32.8799 21.0099 33.1199 20.8199C33.3999 20.5999 33.6899 20.3799 33.9799 20.1599C34.2199 19.9799 34.4599 19.7899 34.7099 19.6099C35.0099 19.3899 35.3099 19.1799 35.5999 18.9599C35.6499 18.9299 35.6899 18.8899 35.7399 18.8599C31.7699 22.8699 28.1899 27.4699 25.0899 32.5999C24.0699 32.2799 23.0599 31.9499 22.0699 31.6099C22.1599 31.4999 22.2599 31.3799 22.3499 31.2699C22.5399 31.0399 22.7399 30.8099 22.9399 30.5799H22.9199ZM120 19.6199C120.21 19.7699 120.41 19.9299 120.62 20.0899C120.94 20.3399 121.27 20.5799 121.59 20.8299C121.8 20.9999 122.01 21.1699 122.22 21.3399C122.53 21.5899 122.83 21.8299 123.14 22.0899C123.36 22.2699 123.57 22.4499 123.78 22.6399C124.07 22.8899 124.37 23.1399 124.66 23.3999C124.88 23.5899 125.09 23.7799 125.3 23.9799C125.58 24.2399 125.87 24.4899 126.15 24.7499C126.36 24.9499 126.57 25.1499 126.78 25.3499C127.06 25.6099 127.33 25.8799 127.6 26.1399C127.81 26.3499 128.02 26.5499 128.22 26.7599C128.49 27.0299 128.75 27.2999 129.02 27.5799C129.23 27.7899 129.43 28.0099 129.63 28.2299C129.89 28.5099 130.15 28.7899 130.4 29.0699C130.6 29.2899 130.8 29.5099 131 29.7399C131.25 30.0299 131.5 30.3099 131.75 30.5999C131.94 30.8299 132.14 31.0499 132.33 31.2799C132.42 31.3899 132.52 31.5099 132.61 31.6199C131.62 31.9599 130.61 32.2899 129.59 32.6099C126.49 27.4799 122.91 22.8699 118.94 18.8699C119.29 19.1299 119.64 19.3699 119.98 19.6299L120 19.6199ZM132.06 117.73C137.99 106.32 141.27 93.3299 141.63 79.8499H149.05C148.57 94.0199 144.02 107.48 135.79 119C134.57 118.56 133.32 118.14 132.06 117.73ZM112.5 112.85C115.21 102.69 116.72 91.3799 116.91 79.8399H136.69C136.32 92.8499 133.08 105.35 127.24 116.26C122.55 114.92 117.61 113.78 112.5 112.85ZM79.8099 148.94V114.75C88.8299 114.86 97.6699 115.55 106.18 116.83C100.21 135.34 90.3699 147.3 79.8099 148.94ZM48.4899 116.83C56.9899 115.55 65.8399 114.86 74.8599 114.75V148.94C64.3099 147.31 54.4699 135.34 48.4899 116.83ZM74.8599 5.7999V39.9899C65.8399 39.8799 56.9999 39.1899 48.4899 37.9099C54.4599 19.3999 64.2999 7.4299 74.8599 5.7999ZM79.8099 5.7999C90.3599 7.4299 100.2 19.3999 106.18 37.9099C97.6799 39.1899 88.8299 39.8799 79.8099 39.9899V5.7999ZM79.8099 109.8V79.8499H111.96C111.77 91.1399 110.27 102.18 107.6 112.04C98.6499 110.66 89.3199 109.91 79.8099 109.8ZM79.8099 74.8999V44.9499C89.3199 44.8399 98.6399 44.0899 107.6 42.7099C110.27 52.5799 111.77 63.6099 111.96 74.9099H79.8099V74.8999ZM47.0699 42.6999C56.0299 44.0799 65.3499 44.8299 74.8599 44.9399V74.8899H42.7099C42.8999 63.5999 44.3999 52.5599 47.0699 42.6899V42.6999ZM74.8599 79.8399V109.79C65.3499 109.9 56.0199 110.65 47.0699 112.03C44.3999 102.16 42.8999 91.1199 42.7099 79.8399H74.8599ZM116.91 74.8999C116.72 63.3599 115.21 52.0499 112.5 41.8899C117.61 40.9599 122.55 39.8099 127.24 38.4799C133.08 49.3899 136.32 61.8899 136.69 74.8999H116.91ZM111.12 37.1099C107.29 24.9299 101.93 15.3799 95.6199 9.10989C107.06 13.5999 117.25 22.2499 124.67 34.0599C120.34 35.2499 115.81 36.2699 111.12 37.1099ZM43.5499 37.1099C38.8599 36.2699 34.3199 35.2399 29.9999 34.0599C37.4199 22.2399 47.6199 13.5899 59.0599 9.09991C52.7499 15.3699 47.3799 24.9299 43.5499 37.1099ZM27.4299 38.4699C32.1099 39.7999 37.0499 40.9499 42.1699 41.8799C39.4599 52.0399 37.9499 63.3499 37.7599 74.8899H17.9799C18.3499 61.8799 21.5899 49.3699 27.4299 38.4699ZM37.7599 79.8399C37.9499 91.3799 39.4599 102.69 42.1699 112.85C37.0599 113.78 32.1199 114.93 27.4299 116.26C21.5899 105.35 18.3499 92.8499 17.9799 79.8399H37.7599ZM43.5499 117.63C47.3799 129.81 52.7399 139.36 59.0399 145.63C47.5999 141.14 37.4099 132.49 29.9899 120.68C34.3099 119.49 38.8499 118.47 43.5399 117.63H43.5499ZM111.12 117.63C115.8 118.47 120.34 119.49 124.67 120.68C117.25 132.5 107.05 141.15 95.6099 145.64C101.92 139.37 107.29 129.81 111.12 117.63ZM141.64 74.8999C141.28 61.4199 138 48.4299 132.07 37.0099C133.33 36.5999 134.58 36.1799 135.8 35.7399C144.03 47.2699 148.59 60.7199 149.06 74.8899H141.64V74.8999ZM13.0299 74.8999H5.60986C6.07986 60.7199 10.6399 47.2699 18.8699 35.7399C20.0899 36.1799 21.3299 36.5999 22.5999 37.0099C16.6699 48.4199 13.3899 61.4099 13.0299 74.8999ZM13.0299 79.8399C13.3899 93.3199 16.6699 106.31 22.5999 117.72C21.3299 118.13 20.0899 118.55 18.8699 118.99C10.6399 107.46 6.08986 94.0099 5.60986 79.8299H13.0299V79.8399Z" fill="black"/>
</svg>
